<svg width="1012" height="531" viewBox="0 0 1012 531" fill="none" xmlns="http://www.w3.org/2000/svg">
<path d="M365.349 274.979V234.152C365.349 231.216 364.869 228.703 363.909 226.614C362.949 224.468 361.452 222.802 359.419 221.616C357.443 220.43 354.874 219.838 351.711 219.838C349.001 219.838 346.657 220.318 344.681 221.278C342.705 222.181 341.18 223.508 340.107 225.259C339.034 226.953 338.498 228.957 338.498 231.272H314.103C314.103 227.376 315.007 223.677 316.814 220.176C318.621 216.675 321.247 213.598 324.691 210.944C328.136 208.233 332.23 206.116 336.973 204.591C341.773 203.066 347.137 202.304 353.067 202.304C360.182 202.304 366.506 203.49 372.04 205.862C377.574 208.233 381.922 211.791 385.084 216.534C388.303 221.278 389.912 227.207 389.912 234.322V273.539C389.912 278.565 390.223 282.687 390.844 285.906C391.465 289.068 392.369 291.835 393.554 294.206V295.646H368.906C367.72 293.162 366.817 290.056 366.196 286.329C365.631 282.546 365.349 278.762 365.349 274.979ZM368.567 239.827L368.737 253.634H355.1C351.881 253.634 349.086 254.001 346.714 254.735C344.342 255.469 342.394 256.514 340.869 257.869C339.345 259.168 338.215 260.692 337.481 262.443C336.804 264.193 336.465 266.113 336.465 268.203C336.465 270.292 336.945 272.184 337.905 273.878C338.865 275.515 340.248 276.814 342.055 277.774C343.862 278.678 345.98 279.129 348.408 279.129C352.078 279.129 355.269 278.395 357.979 276.927C360.69 275.459 362.779 273.652 364.247 271.506C365.772 269.36 366.563 267.327 366.619 265.408L373.056 275.741C372.153 278.056 370.911 280.456 369.33 282.941C367.805 285.426 365.857 287.769 363.485 289.971C361.113 292.117 358.262 293.896 354.93 295.308C351.598 296.663 347.646 297.34 343.072 297.34C337.255 297.34 331.976 296.183 327.232 293.868C322.545 291.496 318.819 288.249 316.052 284.127C313.341 279.948 311.986 275.205 311.986 269.897C311.986 265.097 312.889 260.834 314.696 257.107C316.503 253.38 319.157 250.246 322.658 247.705C326.216 245.107 330.649 243.159 335.957 241.86C341.265 240.505 347.42 239.827 354.422 239.827H368.567ZM455.662 165.459V295.646H431.267V165.459H455.662ZM513.429 203.998L473.619 249.399L452.274 270.998L443.38 253.38L460.32 231.865L484.122 203.998H513.429ZM488.103 295.646L460.998 253.295L477.854 238.557L516.224 295.646H488.103ZM572.233 203.998V295.646H547.754V203.998H572.233ZM546.229 180.112C546.229 176.555 547.472 173.618 549.956 171.303C552.441 168.988 555.772 167.83 559.951 167.83C564.073 167.83 567.377 168.988 569.861 171.303C572.402 173.618 573.673 176.555 573.673 180.112C573.673 183.67 572.402 186.606 569.861 188.921C567.377 191.236 564.073 192.394 559.951 192.394C555.772 192.394 552.441 191.236 549.956 188.921C547.472 186.606 546.229 183.67 546.229 180.112ZM664.494 270.32C664.494 268.57 663.986 266.989 662.97 265.577C661.953 264.165 660.062 262.866 657.295 261.681C654.584 260.438 650.66 259.309 645.521 258.293C640.891 257.276 636.571 256.006 632.561 254.481C628.609 252.9 625.164 251.008 622.228 248.806C619.348 246.604 617.089 244.006 615.452 241.013C613.814 237.964 612.995 234.491 612.995 230.595C612.995 226.755 613.814 223.141 615.452 219.753C617.146 216.365 619.546 213.372 622.651 210.774C625.814 208.12 629.653 206.059 634.171 204.591C638.745 203.066 643.883 202.304 649.587 202.304C657.549 202.304 664.381 203.575 670.085 206.116C675.845 208.657 680.249 212.158 683.298 216.619C686.404 221.023 687.957 226.049 687.957 231.696H663.563C663.563 229.324 663.054 227.207 662.038 225.343C661.078 223.423 659.553 221.927 657.464 220.854C655.431 219.725 652.777 219.16 649.502 219.16C646.792 219.16 644.448 219.64 642.472 220.6C640.495 221.503 638.971 222.746 637.898 224.327C636.881 225.851 636.373 227.546 636.373 229.409C636.373 230.821 636.655 232.091 637.22 233.221C637.841 234.293 638.829 235.282 640.185 236.185C641.54 237.089 643.29 237.936 645.436 238.726C647.639 239.46 650.349 240.138 653.568 240.759C660.175 242.114 666.075 243.893 671.271 246.095C676.466 248.241 680.588 251.178 683.637 254.904C686.686 258.575 688.211 263.403 688.211 269.389C688.211 273.454 687.308 277.181 685.501 280.569C683.694 283.957 681.096 286.922 677.708 289.463C674.32 291.948 670.254 293.896 665.511 295.308C660.824 296.663 655.544 297.34 649.671 297.34C641.145 297.34 633.917 295.816 627.988 292.767C622.115 289.717 617.654 285.849 614.605 281.162C611.612 276.419 610.115 271.563 610.115 266.593H633.239C633.352 269.925 634.199 272.607 635.78 274.64C637.418 276.673 639.479 278.141 641.963 279.045C644.505 279.948 647.243 280.4 650.18 280.4C653.342 280.4 655.968 279.976 658.057 279.129C660.146 278.226 661.727 277.04 662.8 275.572C663.93 274.047 664.494 272.297 664.494 270.32ZM771.494 203.998V221.278H718.131V203.998H771.494ZM731.345 181.383H755.739V268.033C755.739 270.687 756.078 272.72 756.756 274.132C757.49 275.544 758.563 276.532 759.975 277.097C761.386 277.605 763.165 277.859 765.311 277.859C766.835 277.859 768.191 277.802 769.377 277.689C770.619 277.52 771.663 277.351 772.511 277.181L772.595 295.138C770.506 295.816 768.247 296.352 765.819 296.748C763.391 297.143 760.709 297.34 757.772 297.34C752.408 297.34 747.721 296.465 743.712 294.715C739.759 292.908 736.71 290.028 734.564 286.075C732.418 282.122 731.345 276.927 731.345 270.49V181.383ZM857.403 274.979V234.152C857.403 231.216 856.923 228.703 855.963 226.614C855.003 224.468 853.507 222.802 851.474 221.616C849.497 220.43 846.928 219.838 843.766 219.838C841.055 219.838 838.712 220.318 836.735 221.278C834.759 222.181 833.234 223.508 832.161 225.259C831.089 226.953 830.552 228.957 830.552 231.272H806.158C806.158 227.376 807.061 223.677 808.868 220.176C810.675 216.675 813.301 213.598 816.746 210.944C820.19 208.233 824.284 206.116 829.027 204.591C833.827 203.066 839.192 202.304 845.121 202.304C852.236 202.304 858.56 203.49 864.094 205.862C869.628 208.233 873.976 211.791 877.139 216.534C880.357 221.278 881.967 227.207 881.967 234.322V273.539C881.967 278.565 882.277 282.687 882.898 285.906C883.519 289.068 884.423 291.835 885.609 294.206V295.646H860.96C859.775 293.162 858.871 290.056 858.25 286.329C857.685 282.546 857.403 278.762 857.403 274.979ZM860.622 239.827L860.791 253.634H847.154C843.935 253.634 841.14 254.001 838.768 254.735C836.397 255.469 834.448 256.514 832.924 257.869C831.399 259.168 830.27 260.692 829.536 262.443C828.858 264.193 828.519 266.113 828.519 268.203C828.519 270.292 828.999 272.184 829.959 273.878C830.919 275.515 832.303 276.814 834.11 277.774C835.917 278.678 838.034 279.129 840.462 279.129C844.133 279.129 847.323 278.395 850.034 276.927C852.744 275.459 854.834 273.652 856.302 271.506C857.826 269.36 858.617 267.327 858.673 265.408L865.111 275.741C864.207 278.056 862.965 280.456 861.384 282.941C859.859 285.426 857.911 287.769 855.539 289.971C853.168 292.117 850.316 293.896 846.984 295.308C843.653 296.663 839.7 297.34 835.126 297.34C829.31 297.34 824.03 296.183 819.287 293.868C814.6 291.496 810.873 288.249 808.106 284.127C805.395 279.948 804.04 275.205 804.04 269.897C804.04 265.097 804.944 260.834 806.751 257.107C808.558 253.38 811.212 250.246 814.713 247.705C818.27 245.107 822.703 243.159 828.011 241.86C833.319 240.505 839.474 239.827 846.476 239.827H860.622ZM947.208 223.564V295.646H922.814V203.998H945.683L947.208 223.564ZM943.65 246.604H937.044C937.044 239.827 937.919 233.729 939.669 228.308C941.42 222.83 943.876 218.172 947.039 214.332C950.201 210.436 953.956 207.471 958.304 205.438C962.708 203.349 967.621 202.304 973.042 202.304C977.334 202.304 981.258 202.925 984.816 204.168C988.373 205.41 991.423 207.386 993.964 210.097C996.561 212.807 998.538 216.393 999.893 220.854C1001.3 225.315 1002.01 230.764 1002.01 237.202V295.646H977.447V237.117C977.447 233.051 976.882 229.889 975.753 227.63C974.623 225.371 972.957 223.79 970.755 222.887C968.609 221.927 965.955 221.447 962.793 221.447C959.518 221.447 956.666 222.096 954.238 223.395C951.867 224.694 949.89 226.501 948.309 228.816C946.784 231.075 945.627 233.729 944.836 236.778C944.046 239.827 943.65 243.103 943.65 246.604Z" fill="#35A05C"/>
<path d="M199.415 335.652H240.354C249.721 335.652 256.718 338.138 261.344 343.111C266.085 348.084 268.456 355.601 268.456 365.662C268.456 374.105 267.184 380.581 264.64 385.091C262.096 389.486 258.106 392.377 252.67 393.765V394.459C258.684 395.962 262.963 398.853 265.507 403.132C268.167 407.411 269.497 414.061 269.497 423.081C269.497 433.605 267.242 441.585 262.732 447.02C258.221 452.34 250.762 455 240.354 455H199.415V335.652ZM233.935 384.397C236.942 384.397 239.197 384.05 240.701 383.357C242.32 382.663 243.419 381.333 243.997 379.367C244.691 377.401 245.038 374.452 245.038 370.52C245.038 366.356 244.749 363.35 244.17 361.499C243.592 359.533 242.551 358.261 241.048 357.683C239.544 356.989 237.174 356.642 233.935 356.642H223.007V384.397H233.935ZM234.456 434.01C237.694 434.01 240.065 433.663 241.568 432.969C243.072 432.275 244.112 430.945 244.691 428.979C245.269 427.013 245.558 423.891 245.558 419.612C245.558 415.333 245.269 412.211 244.691 410.245C244.112 408.163 243.014 406.775 241.395 406.081C239.891 405.387 237.578 405.04 234.456 405.04H223.007V434.01H234.456ZM289.495 455V335.652H313.26V455H289.495Z" fill="black"/>
<path d="M515.935 406.081V385.612H548.721V452.745C544.674 453.786 539.759 454.653 533.976 455.347C528.194 456.041 522.817 456.388 517.844 456.388C506.857 456.388 498.646 454.769 493.211 451.531C487.891 448.177 484.19 442.279 482.109 433.837C480.143 425.279 479.16 412.442 479.16 395.326C479.16 378.326 480.2 365.605 482.282 357.162C484.479 348.605 488.411 342.649 494.078 339.295C499.745 335.941 508.245 334.264 519.578 334.264C524.204 334.264 529.235 334.611 534.67 335.305C540.106 335.999 544.732 336.808 548.548 337.734V357.336C538.602 355.948 531.374 355.254 526.864 355.254C519 355.254 513.565 355.89 510.558 357.162C507.667 358.435 505.643 361.73 504.486 367.05C503.446 372.254 502.925 381.68 502.925 395.326C502.925 408.047 503.272 417.126 503.966 422.561C504.66 427.881 505.99 431.466 507.956 433.316C510.037 435.166 513.507 436.092 518.364 436.092C519.405 436.092 522.18 435.918 526.691 435.571V406.081H515.935ZM619.55 455L607.928 413.367H595.091V455H571.152V335.652H611.397C619.955 335.652 626.374 337.098 630.653 339.989C635.047 342.88 637.996 347.043 639.5 352.479C641.003 357.914 641.755 365.2 641.755 374.336C641.755 383.01 640.945 390.18 639.326 395.846C637.823 401.513 634.7 405.792 629.959 408.683L644.357 455H619.55ZM605.673 392.724C609.489 392.724 612.207 392.319 613.826 391.51C615.445 390.584 616.486 388.965 616.948 386.652C617.527 384.224 617.816 380.176 617.816 374.509C617.816 368.958 617.527 365.026 616.948 362.713C616.486 360.401 615.445 358.839 613.826 358.03C612.207 357.105 609.489 356.642 605.673 356.642H595.091V392.724H605.673ZM714.29 455L709.606 430.541H682.892L678.208 455H654.443L679.075 335.652H713.943L738.576 455H714.29ZM696.769 358.203H695.729L686.361 409.898H705.963L696.769 358.203ZM754.184 335.652H793.562C802.004 335.652 808.365 337.155 812.644 340.162C817.039 343.169 819.988 347.564 821.491 353.346C822.994 359.013 823.746 366.588 823.746 376.071C823.746 385.207 823.052 392.666 821.664 398.448C820.277 404.115 817.385 408.625 812.991 411.979C808.596 415.217 802.062 416.836 793.389 416.836H778.123V455H754.184V335.652ZM787.491 395.846C791.423 395.846 794.198 395.384 795.817 394.459C797.436 393.533 798.477 391.799 798.94 389.255C799.518 386.595 799.807 382.2 799.807 376.071C799.807 369.941 799.518 365.605 798.94 363.06C798.477 360.516 797.436 358.839 795.817 358.03C794.314 357.105 791.596 356.642 787.664 356.642H778.123V395.846H787.491ZM889.944 455V405.908H865.485V455H841.719V335.652H865.485V383.877H889.944V335.652H913.71V455H889.944ZM956.133 455V413.714L927.857 335.652H952.316L967.929 387.173H969.49L984.582 335.652H1008.17L979.898 413.714V455H956.133Z" fill="black"/>
<g clip-path="url(#clip0_212_24)">
<path d="M394.394 455C378.747 455 363.74 448.784 352.675 437.719C341.61 426.655 335.394 411.648 335.394 396C335.394 380.352 341.61 365.345 352.675 354.281C363.74 343.216 378.747 337 394.394 337C410.042 337 425.049 343.216 436.114 354.281C447.178 365.345 453.394 380.352 453.394 396C453.394 411.648 447.178 426.655 436.114 437.719C425.049 448.784 410.042 455 394.394 455ZM400.641 394.931C404.728 393.46 408.166 390.594 410.349 386.838C412.531 383.082 413.319 378.677 412.572 374.397C411.826 370.118 409.593 366.239 406.268 363.444C402.943 360.648 398.738 359.116 394.394 359.116C390.05 359.116 385.845 360.648 382.52 363.444C379.195 366.239 376.963 370.118 376.216 374.397C375.47 378.677 376.257 383.082 378.44 386.838C380.622 390.594 384.06 393.46 388.148 394.931C375.743 397.925 364.894 409.091 364.894 418.125C364.894 421.038 365.964 425.463 372.269 425.463H416.519C422.825 425.463 423.894 421.038 423.894 418.125C423.894 409.098 413.053 397.918 400.641 394.931Z" fill="#35A05C"/>
</g>
<path d="M287.095 184.741C285.201 184.741 282.361 184.741 278.573 184.741C275.101 184.425 271.787 183.794 268.631 182.847C263.581 181.269 261.056 179.691 261.056 178.113C261.056 176.85 262.003 175.903 263.897 175.272C265.79 174.641 267.842 174.167 270.051 173.852C280.467 172.274 293.092 169.906 307.927 166.75C322.761 163.594 338.069 159.491 353.851 154.441C369.632 149.39 384.309 143.236 397.881 135.976C411.453 128.717 422.5 120.353 431.022 110.884C439.544 101.099 443.805 90.2101 443.805 78.2162C443.805 68.4317 440.964 60.2253 435.283 53.5971C429.602 46.9689 422.184 41.6032 413.031 37.5001C404.193 33.0813 394.567 29.7672 384.151 27.5578C373.735 25.3484 363.793 23.9281 354.324 23.2968C344.855 22.3499 336.807 21.8764 330.179 21.8764C313.766 21.8764 295.617 23.7702 275.733 27.5578C256.164 31.3453 236.91 36.2376 217.973 42.2345C199.35 48.2315 182.78 54.8597 168.261 62.1191C167.945 62.4347 167.314 62.7504 166.367 63.066C165.42 63.3816 164.631 63.5394 164 63.5394C162.422 63.5394 161.633 62.2769 161.633 59.7519C161.633 53.4393 165.105 47.9158 172.049 43.1814C178.992 38.1313 187.988 33.7125 199.035 29.925C210.082 26.1375 222.076 22.9812 235.016 20.4561C248.273 17.6155 261.056 15.4061 273.365 13.8279C285.991 12.2498 297.038 11.1451 306.506 10.5138C315.975 9.56695 322.761 9.09351 326.864 9.09351C335.386 9.09351 345.329 9.72476 356.691 10.9873C368.054 11.9342 379.732 13.8279 391.726 16.6686C403.72 19.5092 414.767 23.6124 424.867 28.9781C435.283 34.0282 443.805 40.6564 450.433 48.8627C457.377 56.7534 461.322 66.6957 462.269 78.6896C463.532 94.1554 460.218 107.727 452.327 119.406C444.436 131.084 433.705 141.184 420.133 149.706C406.561 157.912 391.726 164.698 375.629 170.064C359.532 175.114 343.593 178.902 327.811 181.427C312.346 183.636 298.773 184.741 287.095 184.741ZM199.508 302.628C196.983 302.628 194.774 301.05 192.88 297.894C190.986 294.737 189.566 291.266 188.619 287.478C187.672 283.69 187.041 280.85 186.725 278.956C185.778 268.225 187.357 255.6 191.46 241.081C195.879 226.562 201.875 211.096 209.451 194.683C217.026 177.955 225.705 161.227 235.49 144.498C245.274 127.77 255.217 111.831 265.317 96.6805C275.733 81.2147 285.517 67.327 294.67 55.0175C296.88 52.1768 299.247 48.5471 301.772 44.1283C304.297 39.7095 307.138 35.7641 310.294 32.2922C313.766 28.8203 317.396 27.0843 321.183 27.0843C323.393 27.0843 325.286 27.7156 326.864 28.9781C329.705 30.5563 332.23 32.6078 334.44 35.1329C336.649 37.6579 337.911 40.3407 338.227 43.1814C338.227 44.7595 334.755 49.8096 327.811 58.3316C321.183 66.5379 312.346 77.2693 301.299 90.5257C290.567 103.782 279.205 118.774 267.211 135.503C255.532 151.916 244.485 169.275 234.07 187.582C223.654 205.888 215.448 224.352 209.451 242.974C203.454 261.281 201.086 278.956 202.349 296V297.42C202.349 298.683 202.191 299.788 201.875 300.734C201.56 301.997 200.771 302.628 199.508 302.628Z" fill="#35A05C"/>
<g clip-path="url(#clip1_212_24)">
<path d="M182.123 455C178.074 445.605 174.944 437.516 171.151 429.707C165.521 418.124 157.733 408.027 145.662 401.603C137.286 397.167 127.981 395.661 118.463 395.581C104.062 395.47 89.6189 395.009 75.2503 395.731C63.3709 396.334 56.2881 390.432 51.4487 381.86C45.8616 371.984 44.2698 361.284 49.0344 350.454C51.171 345.646 49.5685 341.421 46.2248 337.938C42.1118 333.652 39.6654 329.125 39.5586 323.163C39.5586 320.694 37.5502 317.743 35.5311 315.927C29.3564 310.366 25.5533 304.615 28.2667 296.003C30.1576 290.051 25.9058 285.916 21.0344 282.664C16.5582 279.653 11.8577 276.953 7.48841 273.841C-0.919074 267.819 -2.26513 258.786 3.52503 250.455C9.98822 241.151 16.2484 231.716 22.5941 222.351L24.4529 223.204C22.4766 227.46 20.81 231.886 18.4171 235.921C16.4045 239.068 14.0371 242.003 11.3556 244.674C2.58493 253.988 4.0485 259.659 16.2377 264.748C23.9508 267.99 31.3114 272.004 38.9924 275.287C41.0008 276.15 43.9386 276.491 45.8081 275.708C46.8017 275.297 47.0474 271.804 46.5453 269.977C44.0348 260.944 41.0329 252.221 42.1973 242.546C42.9966 236.388 45.824 230.619 50.2843 226.045C52.1417 224.139 53.4963 221.85 54.2386 219.362C54.9809 216.874 55.0901 214.257 54.5575 211.722C54.0874 209.233 52.517 205.78 50.4659 204.987C48.0195 204.033 43.8959 204.586 41.5991 206.041C36.2576 209.403 31.5785 213.689 26.6429 217.584C27.7868 214.384 29.1134 211.244 30.617 208.179C35.7555 198.955 35.2748 189.038 32.7536 179.764C28.7184 164.817 28.0273 149.246 30.7238 134.035C33.4159 117.976 38.298 102.167 43.5434 86.6501C52.0042 61.7582 68.926 42.487 90.5483 26.1768C106.22 14.3331 123.73 6.42385 142.489 0.451804C144.709 -0.165636 147.076 -0.144663 149.283 0.512027C145.918 2.00755 142.649 3.73392 139.177 4.94841C123.249 10.539 112.331 22.0817 101.114 33.2228C96.7467 37.7905 92.8613 42.7452 89.5121 48.0174C86.64 52.2979 84.9416 57.1803 84.5688 62.2282C84.1959 67.2761 85.1602 72.3321 87.3755 76.9442C92.3751 87.8445 89.8219 96.5165 84.1706 105.7C79.0214 114.031 74.4491 122.543 72.8894 132.369C72.3659 135.651 69.5991 138.983 67.0245 141.563C57.9012 150.707 60.4331 162.882 72.5689 167.77C78.4232 170.128 84.1065 172.909 89.6616 175.799C92.9627 177.516 95.174 179.874 95.4625 184.06C95.7296 187.723 98.8383 191.216 98.9985 194.86C99.3476 204.022 99.1728 213.196 98.4751 222.341C98.2721 225.352 95.9859 228.122 94.7467 231.043C92.0333 237.427 92.3644 240.428 97.9516 244.854C106.915 251.88 116.187 258.655 125.567 265.239C142.222 276.923 156.088 290.653 163.588 309.272C165.564 314.18 166.878 319.389 169.485 323.976C171.225 326.899 173.933 329.207 177.198 330.551C182.539 332.558 183.063 336.041 183.052 340.487C182.977 367.899 183.052 395.3 183.052 422.701C183.052 431.734 183.052 440.768 182.999 449.801C182.818 451.549 182.525 453.285 182.123 455Z" fill="black"/>
</g>
<defs>
<clipPath id="clip0_212_24">
<rect width="118" height="118" fill="white" transform="translate(335.394 337)"/>
</clipPath>
<clipPath id="clip1_212_24">
<rect width="183.052" height="455" fill="white"/>
</clipPath>
</defs>
</svg>
